<svg width="91" height="26" viewBox="0 0 91 26" fill="none" xmlns="http://www.w3.org/2000/svg">
<path d="M3.39293 15.834H0V19.1984H3.39293V15.834Z" fill="#280549"/>
<path d="M43.5589 0H40.166V3.36438H43.5589V0Z" fill="#280549"/>
<path d="M59.9789 0H56.5859V3.36438H59.9789V0Z" fill="#280549"/>
<path d="M12.1363 14.2503C9.03894 13.5151 7.94138 13.2271 7.94138 12.1063C7.94138 10.8911 9.32932 10.0907 11.6834 10.0907C14.0376 10.0907 15.2976 10.7951 15.8127 12.2348H19.4908C18.8461 9.03495 16.2967 6.89258 11.7474 6.89258C7.19815 6.89258 4.26153 8.94069 4.26153 12.4919C4.26153 15.4346 6.35813 16.427 11.3274 17.6421C14.2951 18.3466 15.9734 18.5694 15.9734 20.0416C15.9734 21.3527 14.5215 22.0571 12.1657 22.0571C9.10116 22.0571 7.64927 21.1608 7.09963 19.2104H3.38867C4.06622 23.0169 7.42112 25.2244 12.1 25.2244C16.2949 25.2244 19.7138 23.4008 19.7138 19.6251C19.7138 16.2025 16.9396 15.3695 12.1311 14.2503H12.1363Z" fill="#280549"/>
<path d="M30.3968 6.89258C25.0404 6.89258 21.2344 10.7951 21.2344 16.1065C21.2344 21.4179 25.0732 25.2244 30.4625 25.2244C34.2374 25.2244 37.6252 23.4008 39.0131 19.4657H35.2382C34.3999 21.1933 32.6248 22.0897 30.4953 22.0897C27.5276 22.0897 25.2357 20.2987 24.9782 17.068H39.3674C39.7218 11.2767 36.1093 6.89429 30.3986 6.89429L30.3968 6.89258ZM25.17 14.1235C25.7508 11.7241 27.6227 10.029 30.3968 10.029C33.171 10.029 34.9132 11.6932 35.4629 14.1235H25.17Z" fill="#280549"/>
<path d="M43.5585 7.27635H40.2676V10.6682H43.5585V18.1219C43.5585 22.9842 46.3983 25.2568 50.0436 25.2568C52.0763 25.2568 54.1418 24.5524 55.1097 23.9766L54.465 21.0338C53.077 21.5137 51.8187 21.8976 50.6901 21.8976C48.3999 21.8976 47.2055 20.4905 47.2055 17.9299V10.6682H54.4978V7.27635H47.2055V3.36523H43.5603V7.27635H43.5585Z" fill="#280549"/>
<path d="M70.8851 21.0338C69.4972 21.5137 68.2389 21.8976 67.1102 21.8976C64.82 21.8976 63.6257 20.4905 63.6257 17.9299V10.6682H70.918V7.27635H63.6257V3.36523H59.9804V7.27635H56.6895V10.6682H59.9804V18.1219C59.9804 22.9842 62.8202 25.2568 66.4655 25.2568C68.4981 25.2568 70.5636 24.5524 71.5316 23.9766L70.8868 21.0338H70.8851Z" fill="#280549"/>
<path d="M81.305 6.89258C75.9486 6.89258 72.1426 10.7951 72.1426 16.1065C72.1426 21.4179 75.9814 25.2244 81.3707 25.2244C84.6668 25.2244 87.6691 23.8327 89.3008 20.8591C89.5376 20.4272 89.745 19.9645 89.9213 19.4657H86.1464C85.8802 20.0159 85.5172 20.4804 85.0782 20.8591C84.1397 21.6715 82.8537 22.088 81.4035 22.088C78.4358 22.088 76.1439 20.297 75.8864 17.0663H90.2756C90.63 11.275 87.0175 6.89258 81.3068 6.89258H81.305ZM76.0782 14.1235C76.659 11.7241 78.5309 10.029 81.305 10.029C84.0792 10.029 85.8214 11.6932 86.3711 14.1235H76.0782Z" fill="#280549"/>
</svg>
